<svg xmlns="http://www.w3.org/2000/svg" viewBox="0 0 623.11969 215.60743" fill="#141852" role="img" aria-label="Alega">
  <title>Alega</title>
  <g transform="translate(-950.4692,-349.85519)">
    <path d="m 1070.8229,565.13359 c -7.0542,-1.2134 -13.0324,-3.2659 -18.4547,-6.336 -2.4229,-1.3718 -7.8277,-5.0973 -9.8946,-6.8201 -9.2784,-7.7341 -17.1499,-11.9415 -24.7722,-13.2411 -3.1519,-0.5374 -8.5198,-0.5392 -12.3527,0 -1.5738,0.2197 -2.9072,0.3536 -2.9632,0.2976 -0.056,-0.056 0.5844,-1.0674 1.4232,-2.2475 3.3076,-4.6542 5.7731,-10.1902 7.889,-17.7143 0.5769,-2.0516 2.0632,-9.7423 2.274,-11.7662 l 0.1775,-1.7049 -1.2458,0.7666 c -7.2065,4.4342 -15.57477,4.563 -22.03483,0.3393 -2.09195,-1.3678 -5.06414,-4.448 -6.23027,-6.4567 -1.79354,-3.0895 -2.76318,-7.0652 -2.48684,-10.1964 l 0.12797,-1.45 -1.16534,0.1943 c -0.64093,0.1069 -2.29078,0.18 -3.66633,0.1626 -9.13685,-0.116 -17.07109,-5.5392 -22.44097,-15.3393 -1.83938,-3.3569 -3.38824,-8.1309 -4.21934,-13.00518 -0.47227,-2.76981 -0.40681,-10.09791 0.11608,-12.99541 1.07977,-5.9832 3.88826,-11.5825 6.66718,-13.2924 0.68456,-0.4212 1.24465,-0.9391 1.24465,-1.1509 0,-0.742 2.59877,-5.3455 3.92605,-6.9546 1.71889,-2.0839 3.68799,-3.6247 6.21097,-4.8598 2.90103,-1.4203 6.02482,-2.264 9.02794,-2.4383 l 2.53336,-0.1471 0.0263,-4.0948 c 0.0267,-4.1618 0.39152,-7.467 1.32074,-11.9647 4.0961,-19.8267 19.02848,-37.1127 39.31118,-45.5074 12.3518,-5.1122 25.9374,-6.6242 39.3023,-4.374 4.5679,0.7691 12.6366,3.006 12.6366,3.5034 0,0.091 -1.2661,0.595 -2.8136,1.1193 -6.2562,2.1195 -10.6518,4.6496 -17.3194,9.9691 -3.9331,3.1379 -11.9348,11.2868 -14.2694,14.5318 -0.4902,0.6814 -0.6174,0.7181 -2.7511,0.7941 -6.9097,0.2462 -14.3098,2.6884 -20.4944,6.7638 -3.3154,2.1847 -8.0152,6.3995 -8.7786,7.8729 -0.6207,1.1978 -0.4464,2.5374 0.4872,3.7444 l 0.8372,1.0824 -1.0583,2.1258 c -1.826,3.6681 -3.0308,7.7019 -3.7226,12.4638 l -0.1575,1.0842 0.8192,-0.1782 c 1.2834,-0.2792 1.9498,-0.58 2.0461,-0.9236 0.049,-0.174 0.2201,-1.3163 0.3808,-2.5385 0.5312,-4.0408 2.0315,-7.4624 4.2347,-9.6576 1.5346,-1.5291 4.1651,-3.0011 5.3628,-3.0011 h 0.7462 l -0.1657,2.1883 c -0.2828,3.7342 -1.1245,8.5439 -1.8772,10.7279 -0.3962,1.1493 -0.665,2.0897 -0.5973,2.0897 0.068,0 0.6452,-0.4318 1.2833,-0.9595 0.638,-0.5278 2.2518,-1.7753 3.5862,-2.7723 2.9059,-2.1712 3.0139,-2.4229 3.7117,-8.6481 0.6179,-5.5136 1.484,-8.3373 3.3809,-11.0229 1.5443,-2.1864 3.2342,-3.3573 6.05,-4.1921 l 1.313,-0.3893 v 0.8523 c 0,1.7773 -1.024,8.8222 -1.525,10.4915 -0.6017,2.0047 -1.5337,3.933 -2.8317,5.8586 -0.4998,0.7415 -0.8667,1.3901 -0.8154,1.4414 0.051,0.051 0.4764,-0.064 0.9446,-0.2568 2.5687,-1.0566 6.2527,-1.0876 12.4352,-0.1047 l 3.3307,0.5295 -0.1572,0.6472 c -0.3872,1.594 -2.4701,3.9365 -4.3242,4.863 -3.0291,1.5136 -6.1363,1.5962 -14.6517,0.3893 l -3.7182,-0.527 -1.6589,1.1503 c -0.9125,0.6327 -2.1654,1.591 -2.7843,2.1296 l -1.1254,0.9794 0.7502,0.1632 c 3.9834,0.8668 7.9734,2.6472 11.7853,5.2587 1.5766,1.0801 2.8063,1.7646 2.9591,1.6471 0.1438,-0.1105 2.4965,-1.8023 5.2282,-3.7596 4.8223,-3.4551 8.2813,-6.0763 12.6653,-9.5975 1.964,-1.5775 11.7533,-8.3649 13.1843,-9.1413 0.3438,-0.1866 2.8358,-1.9937 5.5376,-4.0159 14.1755,-10.6094 15.4389,-11.4977 21.6226,-15.2021 5.0875,-3.0476 16.6042,-8.579 17.8622,-8.579 0.1283,0 1.1243,0.8195 2.2132,1.821 1.0889,1.0015 3.049,2.4568 4.3558,3.234 7.2169,4.2919 10.9,10.0816 11.4153,17.9447 0.3166,4.8311 -1.237,10.9755 -3.8026,15.0397 l -0.6487,1.0276 0.7697,3.4806 c 0.4233,1.9143 0.7732,3.6753 0.7775,3.9133 0,0.238 0.2847,0.9955 0.623,1.6833 0.5452,1.1082 0.6152,1.5776 0.6156,4.1266 3e-4,1.5819 -0.1747,3.9453 -0.3889,5.2521 -0.7137,4.3547 -0.738,6.229 -0.1056,8.1623 0.6628,2.0262 2.2499,5.7394 4.7424,11.0953 1.9027,4.0884 2.1706,4.6319 4.9317,10.00401 1.9382,3.77098 2.4899,5.72048 2.2342,7.89538 -0.405,3.4459 -2.4183,5.4484 -7.158,7.1193 -1.9161,0.6756 -2.6332,1.2521 -3.0218,2.4296 -0.3783,1.1464 -0.1299,2.5299 0.7769,4.3262 0.4094,0.811 0.7442,1.7872 0.7441,2.1694 -3e-4,0.9442 -1.2663,3.503 -2.2556,4.5588 l -0.8083,0.8627 0.4078,1.1381 c 0.5115,1.4273 0.5218,3.6215 0.023,5.0337 -0.2437,0.6907 -1.013,1.7332 -2.1258,2.8809 -2.0106,2.0736 -2.1027,2.4749 -1.2509,5.4536 1.0841,3.7909 0.8942,7.0584 -0.5974,10.2788 -2.0069,4.3329 -5.8846,6.816 -11.9475,7.6505 -2.4833,0.3419 -9.5678,-0.01 -13.2322,-0.6523 -1.156,-0.2034 -2.552,-0.3681 -3.1023,-0.3659 -1.4609,0.01 -4.1034,0.6156 -5.5195,1.2736 -1.8415,0.8557 -4.0985,3.2399 -5.1822,5.4744 -0.9934,2.0482 -1.231,2.9775 -2.4297,9.5038 -0.4421,2.4072 -1.2905,6.8527 -1.8853,9.8789 -0.5948,3.0263 -1.3666,7.0216 -1.715,8.8786 -0.3485,1.857 -0.8665,4.6127 -1.151,6.1238 -0.2846,1.5112 -0.5978,2.8195 -0.6961,2.9074 -0.098,0.088 -1.377,-0.046 -2.8416,-0.2982 z m -0.5744,-5.6693 c 0.089,-0.5159 0.4269,-2.2884 0.7513,-3.9391 1.4805,-7.5346 3.9029,-20.1622 4.1501,-21.6336 0.8604,-5.1224 2.5588,-9.036 5.0825,-11.7112 0.8918,-0.9454 2.0807,-2.0372 2.6419,-2.4261 1.184,-0.8205 1.2331,-0.7692 -1.7907,-1.8715 -5.3768,-1.9599 -14.8803,-7.4074 -18.8522,-10.8062 -6.5038,-5.5655 -10.6028,-11.2342 -13.2506,-18.3252 -0.5131,-1.374 -1.1274,-3.2639 -1.365,-4.1997 -0.2377,-0.9358 -0.5087,-1.7044 -0.6023,-1.7079 -0.094,0 -0.8158,0.1298 -1.6048,0.2964 -1.9704,0.4161 -4.6027,0.025 -6.6631,-0.9889 -2.0977,-1.0327 -2.6981,-1.5349 -4.4084,-3.6871 -1.5171,-1.9091 -1.7425,-1.9371 -1.7425,-0.2161 0,1.1918 -1.3343,6.1979 -2.17,8.1413 -1.646,3.828 -5.5123,9.262 -10.2824,14.4519 l -1.2302,1.3384 -0.159,2.5382 c -0.24,3.831 -1.2526,9.78 -2.4967,14.6683 -1.3184,5.1806 -2.2115,7.6725 -5.0761,14.163 -0.087,0.197 0.5435,0.2931 2.0789,0.3169 7.3504,0.1136 13.6108,2.0916 21.3363,6.7413 2.2999,1.3842 4.3987,2.8863 8.6284,6.1755 10.6959,8.3174 15.2773,10.8023 23.9878,13.0106 1.2499,0.3169 2.4082,0.5835 2.5739,0.5924 0.1657,0.01 0.374,-0.4058 0.4629,-0.9216 z m 40.7523,-42.0452 c 5.4299,-1.9504 7.4034,-6.1725 5.6273,-12.0388 -0.7203,-2.3788 -0.8636,-4.1822 -0.4315,-5.4276 l 0.3646,-1.0508 -1.1282,-0.3844 c -2.9122,-0.9923 -4.871,-3.1547 -3.7218,-4.1085 0.2551,-0.2117 0.7539,-0.063 2.0865,0.6203 1.3006,0.6673 2.1761,0.9326 3.4024,1.031 1.5977,0.1283 1.6768,0.1069 2.4453,-0.6617 0.7325,-0.7325 0.7858,-0.8969 0.6849,-2.1139 -0.1235,-1.4884 -0.7277,-2.4883 -1.7717,-2.932 -0.7981,-0.3392 -2.2036,-0.2156 -5.8199,0.5119 -1.349,0.2714 -3.5581,0.5695 -4.9089,0.6626 l -2.4562,0.1691 0.025,-0.7235 c 0.062,-1.7868 0.23,-1.9618 2.038,-2.1182 1.8874,-0.1633 4.0728,-1.131 7.2756,-3.2218 3.8184,-2.4927 4.954,-2.8481 6.7705,-2.1187 0.4134,0.166 0.4548,0.1103 0.3065,-0.413 -1.0609,-3.743 -1.1161,-4.4449 -0.5097,-6.4869 0.6362,-2.1423 2.5549,-3.8295 5.9468,-5.2292 5.0515,-2.0846 5.281,-3.4117 1.7077,-9.87888 -0.7545,-1.3654 -2.0365,-3.88491 -2.8489,-5.59871 l -1.4771,-3.116 -2.1767,0.1381 c -2.5642,0.1628 -5.2327,1.0136 -9.2358,2.9446 -7.0398,3.3957 -12.1265,4.48831 -20.897,4.48831 -9.2351,0 -25.8349,-2.05711 -36.3108,-4.49981 l -2.1567,-0.5029 -2.0178,1.1639 c -1.1098,0.6401 -3.1547,1.6574 -4.5442,2.2605 -1.3895,0.6032 -2.6131,1.23321 -2.7192,1.40001 -0.5052,0.795 -0.1808,2.07428 0.9286,3.66278 1.3949,1.9973 1.6891,2.9787 1.3485,4.4985 -0.3133,1.3978 -1.0219,2.1966 -2.2398,2.5245 -1.3573,0.3655 -2.3666,0.057 -3.6865,-1.1256 -1.3543,-1.2138 -2.3131,-1.7456 -3.554,-1.9713 -1.8904,-0.3438 -3.6541,-2.1904 -4.2675,-4.4681 l -0.2535,-0.9417 h -1.8661 c -1.0264,0 -1.8661,0.068 -1.8661,0.1515 0,0.5747 0.8893,3.39 1.3685,4.3324 0.4821,0.9481 3.5673,4.5994 8.3361,9.8656 1.2391,1.3683 2.7974,2.0196 4.8011,2.0067 2.031,-0.013 2.8617,-0.4322 4.4084,-2.2237 1.8458,-2.1379 2.1955,-1.9088 2.8426,1.8627 2.181,12.7121 8.0568,21.3958 19.6347,29.0178 3.1396,2.0669 10.0844,5.5522 13.7043,6.8776 3.4878,1.2771 9.7771,2.7956 13.4315,3.243 4.7394,0.5801 4.8833,0.589 8.5034,0.5229 2.7167,-0.05 3.6695,-0.1669 4.8769,-0.6006 z m 4.4972,-43.3997 c -1.7303,-0.7539 -3.0461,-3.1427 -2.7167,-4.9322 0.2813,-1.5283 1.6458,-3.4727 2.4369,-3.4727 0.068,0 0.3016,0.178 0.5192,0.3955 0.3606,0.3607 0.3489,0.461 -0.1326,1.1372 -1.1104,1.5595 -0.8339,3.893 0.5459,4.6065 1.0151,0.5249 1.527,0.4545 2.6597,-0.366 2.2365,-1.6201 4.1741,-2.2456 5.934,-1.9154 0.6329,0.1187 0.8872,0.2978 0.8872,0.6247 0,0.6592 -0.4378,0.927 -2.0585,1.2594 -0.9956,0.2042 -1.8804,0.6231 -2.8975,1.3718 -0.8052,0.5928 -1.7004,1.2043 -1.9891,1.3588 -0.6975,0.3733 -2.2524,0.3403 -3.1885,-0.067 z m -109.2634,30.4883 c 1.8903,-0.6314 5.4511,-2.3769 5.977,-2.9301 0.1744,-0.1835 -0.3685,-0.2183 -1.7954,-0.1151 -8.3993,0.6073 -16.53045,-3.6633 -19.9212,-10.4629 -0.85893,-1.7225 -1.66772,-4.3174 -1.66772,-5.3507 0,-0.7263 -0.34419,-0.6592 -1.07505,0.2094 -1.53416,1.8232 -1.51215,7.1921 0.0435,10.6081 0.73437,1.6126 2.63887,4.1552 3.90883,5.2183 1.84387,1.5437 4.71784,2.9249 7.16501,3.4436 1.84523,0.3911 5.17643,0.1104 7.36503,-0.6206 z m 7.2275,-8.0156 c 5.6249,-1.4834 10.4989,-6.0232 12.9013,-12.0168 0.505,-1.2599 1.1021,-3.0085 1.3268,-3.8857 0.4071,-1.5892 1.0268,-7.4756 0.8446,-8.0223 -0.053,-0.1582 -0.4121,0.6043 -0.7985,1.6944 -1.4667,4.1372 -3.3628,7.2711 -6.2177,10.2765 -4.6432,4.8881 -9.6134,7.1336 -15.8096,7.1426 -3.7155,0 -6.28012,-0.5095 -9.10073,-1.8271 -1.15387,-0.539 -2.14781,-0.98 -2.20877,-0.98 -0.061,0 0.14042,0.4221 0.44749,0.9379 0.76809,1.2903 3.12458,3.6861 4.49097,4.566 1.33454,0.8593 4.01594,1.9093 6.12094,2.3968 1.8393,0.426 5.8544,0.2844 8.0032,-0.2823 z m -4.3329,-9.5033 c 5.8094,-1.2221 11.1331,-6.0822 13.7558,-12.5582 1.2202,-3.0127 1.7065,-5.6775 1.7065,-9.3501 0,-2.9685 0,-2.9807 -0.6415,-3.22368 -0.3529,-0.1342 -0.8019,-0.2439 -0.9979,-0.2439 -0.1992,0 -0.8677,1.02038 -1.5156,2.31338 -1.5785,3.1501 -3.0694,5.4062 -5.2821,7.9934 -2.0819,2.4343 -5.9074,5.4851 -8.5331,6.8052 -3.375,1.6967 -8.99481,3.146 -12.19914,3.146 -1.72943,0 -1.73088,0.3107 -0.009,1.9391 3.21473,3.0404 8.52424,4.2709 13.71614,3.1788 z m -27.24641,-3.0926 c 1.13428,-0.3914 3.6932,-1.8475 3.6932,-2.1016 0,-0.029 -1.28593,-0.011 -2.85762,0.038 -7.78024,0.247 -13.76673,-3.049 -18.52792,-10.2008 -2.51625,-3.7797 -3.73212,-6.897 -4.63086,-11.87289 -0.38348,-2.123 -0.79144,-3.3722 -1.83773,-5.6272 -0.73966,-1.5941 -1.55065,-3.5529 -1.8022,-4.353 -0.58205,-1.8511 -0.74216,-1.4673 -0.97556,2.3385 -0.38122,6.2161 1.10226,13.42579 3.93498,19.12409 3.44375,6.9274 9.25625,11.7071 15.96144,13.1253 1.65616,0.3503 5.38503,0.101 7.04227,-0.4709 z m 2.18198,-6.6503 c 1.03129,-0.1382 2.66763,-0.7634 3.47751,-1.3288 0.38034,-0.2655 0.82133,-2.2473 0.5389,-2.4219 -0.0994,-0.061 -1.01322,-0.237 -2.03073,-0.3902 -6.4065,-0.9643 -12.27614,-3.2424 -17.71165,-6.8741 -1.52392,-1.0182 -2.76966,-1.7141 -2.76832,-1.5465 0.004,0.5449 1.19022,2.8731 2.28375,4.4839 1.57109,2.3141 4.82462,5.4598 6.59234,6.3739 2.02605,1.0476 3.70452,1.6039 5.50219,1.8236 1.48868,0.182 1.96704,0.168 4.11601,-0.1199 z m 16.61383,-0.6433 c 6.9046,-1.7679 12.8882,-6.9528 16.619,-14.4004 l 1.0203,-2.03678 -1.4975,-0.56001 c -0.8236,-0.3081 -2.1268,-0.939 -2.8959,-1.4021 -0.7691,-0.4632 -1.4691,-0.84 -1.5556,-0.8373 -0.087,0 -0.5355,0.8748 -0.9977,1.9382 -2.7281,6.27659 -8.5196,12.93459 -14.73565,16.94019 -0.85327,0.5498 -1.55239,1.0638 -1.55359,1.1421 -0.004,0.2416 3.51781,-0.2517 5.59664,-0.7839 z m -1.2032,-8.2937 c 3.1073,-2.9706 5.2863,-5.8876 7.0203,-9.39769 0.768,-1.5547 1.3428,-2.8802 1.2774,-2.9456 -0.2956,-0.2956 -6.8136,7.00909 -8.60987,9.64889 -0.42119,0.619 -1.30457,2.1235 -1.96306,3.3433 -1.47268,2.728 -1.16543,2.6404 2.27523,-0.6489 z m -6.67581,-0.6311 c 0.91183,-1.8007 3.49369,-5.73978 4.95558,-7.56078 0.60945,-0.75911 2.52473,-2.81131 4.25623,-4.56031 2.7815,-2.8097 3.1085,-3.2278 2.808,-3.5899 -0.4656,-0.5609 -1.6489,-0.3718 -4.262,0.6811 -6.34269,2.5555 -10.79887,6.7082 -11.36475,10.59059 -0.12946,0.8883 -0.0355,1.1457 0.83786,2.296 0.54101,0.7125 1.19502,1.8094 1.45334,2.4375 0.25832,0.6281 0.49619,1.1424 0.5286,1.1429 0.0324,5e-4 0.38662,-0.6462 0.78714,-1.4371 z m -7.24253,0.2885 c -0.79038,-0.8464 -3.75039,-2.9253 -6.73375,-4.7292 -5.14041,-3.10818 -8.11568,-5.26669 -10.5013,-7.61849 -5.07956,-5.0075 -6.81567,-8.2424 -8.66165,-16.1395 -0.16575,-0.7091 -0.18751,-0.6816 -0.39593,0.5002 -0.57036,3.2341 0.39394,8.0715 2.42089,12.1443 1.54833,3.1111 2.86508,4.9669 5.08123,7.1616 4.14252,4.10239 9.36117,6.91829 15.9333,8.59729 3.48825,0.8912 3.61457,0.8949 2.85721,0.084 z m 58.04204,-0.6119 c 0,-0.1434 -0.4477,-0.8537 -0.9949,-1.5785 -1.0643,-1.4096 -1.7562,-3.0489 -1.7562,-4.16048 v -0.685 l -2.1884,0.4839 c -3.0985,0.68518 -2.9016,0.548 -2.3418,1.63168 0.5795,1.122 1.0572,1.4386 3.1417,2.0825 1.039,0.3209 1.9471,0.8231 2.6695,1.4763 1.1331,1.0245 1.4701,1.1963 1.4701,0.7496 z m -61.67063,-8.30499 c -0.0989,-0.3095 -0.32598,-1.1147 -0.50461,-1.7894 -0.17863,-0.6746 -0.62267,-1.6313 -0.98676,-2.1258 -7.51059,-10.2022 -10.10906,-18.6503 -8.08456,-26.2843 0.47163,-1.7785 0.79145,-2.4853 1.86802,-4.1283 l 0.46441,-0.7088 -0.81091,0.1622 c -2.33354,0.4667 -5.5985,2.6551 -7.25828,4.8651 -2.0722,2.759 -2.678,4.9042 -2.48153,8.7873 0.32433,6.4101 4.11961,12.6681 10.61167,17.4976 1.55147,1.1541 6.76743,4.2751 7.15796,4.283 0.11243,0 0.1235,-0.2491 0.0246,-0.5586 z m 55.67293,-1.9064 c 2.8706,-0.5993 6.9479,-1.8784 7.6293,-2.3935 0.2718,-0.2055 0.7039,-0.3772 0.9601,-0.3815 1.0585,-0.018 8.8911,-4.9755 8.2164,-5.2004 -0.1519,-0.051 -0.5197,0.038 -0.8172,0.1974 -1.1435,0.612 -4.7759,1.7417 -7.143,2.2215 -7.3814,1.4964 -14.166,1.2096 -20.504,-0.8665 -4.4615,-1.4615 -7.8396,-3.3228 -13.2312,-7.2901 -5.8637,-4.3147 -9.3599,-5.8266 -13.47424,-5.8266 -5.61069,0 -10.3338,2.6253 -12.28135,6.8265 -0.45945,0.9911 -0.9111,2.247 -1.00367,2.791 l -0.1683,0.989 1.16243,-1.0715 c 2.63819,-2.4318 6.85574,-3.6397 10.74506,-3.0773 4.09007,0.5913 6.11287,1.588 11.76877,5.7989 2.0633,1.5362 4.4848,3.2306 5.381,3.7653 3.4184,2.0395 7.3462,3.4071 11.4009,3.9693 2.626,0.3642 8.5868,0.1273 11.359,-0.4515 z m -45.02263,-5.2404 c 0.89411,-0.586 2.55689,-1.5305 3.69508,-2.099 1.13818,-0.5685 1.97461,-1.1284 1.85872,-1.2443 -0.27246,-0.2725 -3.41907,-0.3284 -4.5534,-0.081 -3.10322,0.677 -5.54245,3.4108 -5.92496,6.6404 l -0.14203,1.1992 1.72047,-1.675 c 0.94627,-0.9212 2.45202,-2.1544 3.34612,-2.7404 z m 106.29883,3.6985 c 4.2276,-0.5176 9.3475,-2.1608 13.999,-4.4929 2.2331,-1.1197 5.4039,-2.1538 7.8928,-2.5742 l 1.8046,-0.3048 -0.9097,-2.1997 -0.9096,-2.1997 -1.0004,0.1507 c -1.618,0.2438 -4.9871,1.4602 -9.0036,3.2508 -5.8392,2.603 -9.1057,3.5476 -14.2556,4.1223 -6.6648,0.7438 -18.7819,-0.2079 -30.8431,-2.4224 l -3.5822,-0.6577 -1.7817,1.7817 c -1.209,1.209 -1.6654,1.8175 -1.4198,1.8933 0.7596,0.2341 11.2181,1.9252 13.3116,2.1524 1.2074,0.131 2.2785,0.2896 2.3802,0.3525 0.2026,0.1252 9.5979,1.1084 11.8059,1.2355 3.4361,0.1978 10.5892,0.1476 12.5116,-0.088 z M 982.94678,441.2298 c 0.50556,-1.3756 0.97592,-2.6845 1.04524,-2.9087 0.0693,-0.2243 -0.21045,-1.4623 -0.62174,-2.7511 -0.79261,-2.4839 -1.90249,-7.1934 -2.22717,-9.4505 -0.10719,-0.7452 -0.31614,-1.3953 -0.46433,-1.4447 -0.1482,-0.049 -0.79098,0.3692 -1.42842,0.9303 -1.36758,1.2038 -2.55559,3.4623 -2.95665,5.6207 -0.77706,4.182 0.76714,10.2154 3.9596,15.4708 l 0.91304,1.503 0.43061,-2.2344 c 0.23684,-1.2289 0.84426,-3.3599 1.34982,-4.7354 z m 61.65262,6.2545 c 4.9009,-0.9452 8.1753,-2.2408 12.0367,-4.7626 2.2953,-1.499 7.6507,-6.2726 7.3615,-6.5618 -0.062,-0.062 -0.8793,0.3955 -1.8152,1.0176 -6.6237,4.4027 -14.5866,6.5502 -21.913,5.9095 -3.024,-0.2645 -4.1366,-0.4807 -7.0819,-1.3761 -2.5217,-0.7666 -8.1342,-3.5879 -12.5976,-6.3325 -4.3916,-2.7005 -9.0162,-4.9287 -11.5699,-5.5745 -4.0787,-1.0314 -10.31449,-0.2772 -13.91624,1.6831 -1.25493,0.683 -3.8811,2.8428 -3.68956,3.0343 0.0603,0.06 0.99417,-0.1871 2.07521,-0.5498 2.63148,-0.883 6.62699,-1.1074 9.42049,-0.529 3.7903,0.7847 6.722,2.2067 10.9587,5.3155 7.8381,5.7513 12.2158,7.8835 18.476,8.999 2.4531,0.4372 9.3726,0.2831 12.2548,-0.2727 z m 50.5201,-0.5037 c 4.6256,-0.3105 8.5647,-1.4216 14.9131,-4.2064 3.4102,-1.496 6.5495,-2.6281 8.3911,-3.026 0.6262,-0.1352 0.6544,-0.1982 0.4296,-0.9572 -0.1323,-0.4469 -0.2174,-1.4878 -0.1889,-2.3131 l 0.052,-1.5006 -4.6079,0.043 c -6.1217,0.058 -14.7692,0.9768 -21.9899,2.3372 -1.4443,0.2721 -3.1252,0.4949 -3.7353,0.4952 -1.4673,5e-4 -2.267,-0.7142 -2.267,-2.0259 0,-1.6579 0.8826,-2.0237 7.753,-3.2134 8.241,-1.427 14.725,-2.0738 21.1685,-2.1116 l 4.5368,-0.027 0.1504,-1.2505 c 0.083,-0.6878 0.1513,-1.6884 0.1525,-2.2235 v -0.973 l -5.9399,0.1463 c -10.435,0.2571 -20.2574,1.5937 -34.4511,4.6881 -6.2921,1.3718 -7.1708,1.6342 -7.6779,2.2931 -0.2416,0.3139 -0.4418,0.6465 -0.4448,0.7391 -0.01,0.3094 -3.2946,6.0582 -4.6597,8.1561 -0.7416,1.1395 -1.3483,2.1095 -1.3483,2.1554 0,0.046 0.4221,0.1498 0.9379,0.2309 0.5158,0.081 2.6129,0.4319 4.6602,0.7798 7.0886,1.2044 17.5727,2.1855 21.0375,1.9685 0.5502,-0.034 1.957,-0.1268 3.1263,-0.2053 z m -46.9683,-8.7299 c 5.5,-1.0523 11.2202,-3.8517 16.081,-7.8699 2.7311,-2.2576 8.5442,-7.9608 10.3955,-10.1988 l 1.5189,-1.8363 -1.9556,0.018 -1.9556,0.018 -2.0008,2.3916 c -2.0515,2.4523 -5.0947,5.3341 -7.7531,7.3418 -8.7697,6.6233 -17.8395,7.7786 -27.1786,3.4618 -2.8307,-1.3084 -4.3993,-2.2528 -7.4601,-4.4916 -5.3682,-3.9265 -9.747,-5.6214 -15.2617,-5.9074 -4.4862,-0.2327 -8.1367,0.6651 -11.4904,2.8259 -0.8276,0.5332 -1.50575,1.0337 -1.50695,1.1123 -10e-4,0.079 0.58865,0.059 1.31085,-0.044 1.9438,-0.2769 5.5899,-0.2561 7.4404,0.043 3.9529,0.6376 8.611,2.7121 15.3483,6.8356 4.5832,2.8051 8.7589,4.8811 11.3478,5.6416 4.3006,1.2632 8.7854,1.4886 13.1201,0.6592 z m -60.31973,-6.8373 c 0.0195,-0.796 0.83827,-5.7848 1.38497,-8.438 2.86348,-13.8971 10.32336,-26.7008 20.10306,-34.5038 1.9697,-1.5716 6.42,-4.4603 8.3943,-5.4487 4.7924,-2.3992 12.9217,-4.6931 16.632,-4.6931 1.3693,0 1.4835,-0.081 3.5297,-2.501 0.8722,-1.0317 2.6576,-2.9869 3.9674,-4.3451 2.1364,-2.2153 2.3042,-2.4546 1.6311,-2.3266 -0.4127,0.078 -1.4818,0.2151 -2.3759,0.3034 -8.0848,0.7985 -19.246,5.001 -26.5106,9.9818 -14.5086,9.9477 -24.61358,25.693 -26.86953,41.8675 -0.44024,3.1564 -0.53812,10.2912 -0.14118,10.2912 0.13755,0 0.25216,-0.084 0.25468,-0.1876 z m 63.27053,-2.3442 c 3.3677,-0.8953 6.9652,-2.8994 10.5042,-5.8516 1.5242,-1.2714 4.2517,-3.9983 4.2517,-4.2506 0,-0.084 -2.8267,0.5304 -4.6268,1.0055 -2.0845,0.5502 -7.5433,3.2554 -10.3274,5.1179 -2.7553,1.8433 -5.4588,4.2594 -5.0493,4.5125 0.4592,0.2838 3.2338,0 5.2476,-0.5337 z m -8.8785,-2.4996 c 4.9472,-5.0177 11.4808,-8.9979 17.8122,-10.8509 4.4966,-1.3161 7.3709,-1.6557 15.9512,-1.8849 4.4018,-0.1176 8.2283,-0.2698 8.5034,-0.3383 0.2751,-0.069 1.5131,-0.3133 2.7511,-0.544 3.9527,-0.7366 8.2574,-2.4932 11.5046,-4.6946 2.0031,-1.358 5.9327,-5.1804 7.2404,-7.043 4.6134,-6.5708 5.8291,-13.2989 3.3966,-18.798 -0.4605,-1.041 -1.9438,-3.0859 -2.238,-3.0855 -0.08,10e-5 -0.1545,1.7727 -0.1652,3.9391 -0.015,3.0791 -0.1362,4.4463 -0.5542,6.2638 -1.9474,8.4677 -7.4004,14.9189 -15.2754,18.0716 -4.4271,1.7723 -6.0128,2.0001 -15.5384,2.2317 -10.2251,0.2487 -12.6676,0.6126 -18.1322,2.7018 -2.88,1.1011 -4.2762,1.808 -6.7527,3.4188 -2.5441,1.6547 -14.9592,10.8969 -14.8221,11.034 0.2118,0.2119 3.5826,1.5698 3.9428,1.5884 0.2063,0.011 1.2755,-0.8938 2.3759,-2.01 z m 37.8901,-0.4447 c 13.2903,-2.8536 25.2704,-4.3871 35.9197,-4.5979 l 2.7817,-0.055 -0.5911,-2.8761 c -0.7453,-3.627 -1.8903,-7.6941 -3.0275,-10.7543 -1.0663,-2.8695 -3.0732,-7.2529 -3.3207,-7.2529 -0.098,0 -0.6012,0.6847 -1.1177,1.5216 -0.8117,1.315 -2.037,2.9035 -4.005,5.192 -1.6027,1.8638 -6.4253,5.4341 -9.2575,6.8536 -3.4998,1.7542 -9.3017,3.4305 -13.2019,3.8144 l -1.6973,0.1671 -1.8955,2.1675 c -1.9984,2.285 -5.0745,6.2857 -5.0836,6.6115 0,0.1058 0.2478,0.1341 0.5573,0.063 0.3095,-0.071 2.0821,-0.4556 3.9391,-0.8543 z m -82.97051,-4.7653 c 0.65338,-0.4663 1.18797,-0.9165 1.18797,-1.0005 0,-0.084 0.17203,-1.556 0.38228,-3.2714 0.45656,-3.7247 1.51246,-8.0884 2.69676,-11.145 1.3395,-3.4572 1.3103,-3.6363 -0.2209,-1.3525 -3.131,4.6703 -6.72554,13.6574 -7.50224,18.7575 l -0.1714,1.1254 1.21978,-1.1329 c 0.67088,-0.623 1.75436,-1.5143 2.40775,-1.9806 z m -9.25855,-15.894 c 3.87851,-8.8971 8.44483,-15.4548 15.53326,-22.3075 11.5984,-11.2127 26.2874,-17.6874 42.1237,-18.5676 2.0266,-0.1127 3.7495,-0.1679 3.8286,-0.1228 0.079,0.045 0.8107,-0.4526 1.6257,-1.106 2.3012,-1.8451 5.5881,-4.1533 7.1715,-5.0361 0.791,-0.441 1.3858,-0.8865 1.3218,-0.99 -0.2889,-0.4675 -5.8274,-0.8893 -11.6384,-0.8864 -5.5658,0 -6.5011,0.067 -10.2042,0.7035 -13.8461,2.3789 -25.3545,8.1351 -34.9885,17.5004 -8.45357,8.2178 -13.57346,17.161 -16.20813,28.3115 -0.6659,2.8182 -1.37783,7.6105 -1.36669,9.1997 0.007,0.9316 0.11927,0.7195 0.96827,-1.8218 0.52849,-1.5819 1.35338,-3.7765 1.83309,-4.8769 z m 132.77226,-1.0629 c 0.7527,-2.2918 0.8008,-2.6567 0.7993,-6.065 0,-3.2327 -0.073,-3.8442 -0.657,-5.6325 -0.9502,-2.9091 -2.339,-5.0717 -4.691,-7.3048 l -1.1139,-1.0577 v 3.4336 c 0,2.4013 -0.1381,4.0176 -0.4515,5.3759 -0.4396,1.9048 -0.4387,1.9578 0.046,2.751 0.8804,1.4401 2.9606,5.7451 4.0467,8.3744 0.5823,1.4099 1.0959,2.5635 1.1412,2.5635 0.045,0 0.4427,-1.0973 0.8832,-2.4384 z m -45.5452,1.052 c 7.7842,-0.091 9.4065,-0.2636 12.8415,-1.3672 3.1514,-1.0125 5.9198,-2.6534 8.1338,-4.821 4.3894,-4.2975 6.5356,-9.5813 6.5356,-16.0902 v -2.3408 l -1.5768,0.7775 -1.5769,0.7776 -0.3209,1.7836 c -1.1299,6.2802 -4.4378,11.8668 -8.9053,15.0396 -3.8894,2.7623 -6.8754,3.6814 -15.0748,4.64 -4.3551,0.5091 -8.5704,1.3164 -9.3099,1.7829 -0.2467,0.1556 0.053,0.1792 0.8753,0.069 0.6878,-0.092 4.4581,-0.2052 8.3784,-0.2509 z m 3.4527,-6.525 c 2.9229,-0.4276 4.5868,-0.8743 6.5047,-1.7463 3.1342,-1.4249 5.9876,-4.2733 7.7395,-7.7259 0.4281,-0.8438 1.5607,-3.9735 1.5607,-4.3128 0,-0.3539 -8.8467,5.2421 -11.7546,7.4354 -0.4815,0.3632 -2.649,1.9885 -4.8168,3.6118 -2.1678,1.6233 -4.0024,3.0502 -4.077,3.1709 -0.1476,0.2388 0.8794,0.1469 4.8435,-0.4331 z m -34.34,3.2741 c -6.1817,-0.8105 -6.6388,-0.8189 -7.5925,-0.1398 -0.7128,0.5075 -0.8033,0.5207 -0.9499,0.1388 -0.3075,-0.8013 0.297,-1.5839 2.5745,-3.3329 l 2.2853,-1.755 0.2742,-1.577 c 0.1508,-0.8673 0.5057,-3.3213 0.7887,-5.4534 0.5703,-4.2963 1.1621,-6.5752 2.3357,-8.9947 1.3847,-2.8548 4.3783,-5.2389 7.1096,-5.6621 l 1.0733,-0.1664 -0.156,1.7218 c -0.6956,7.6742 -1.1399,9.7305 -3.0349,14.047 -0.077,0.1762 0.8027,-0.3866 1.9557,-1.2505 1.153,-0.864 2.857,-2.1247 3.7866,-2.8016 2.109,-1.5355 2.1863,-1.7507 3.0602,-8.5232 0.9665,-7.489 2.6314,-10.9972 6.3345,-13.3479 1.2752,-0.8095 3.7912,-1.6457 4.0511,-1.3465 0.2351,0.2707 -0.4258,6.4942 -1.0026,9.4424 -0.323,1.6508 -0.8166,3.1598 -1.4519,4.4392 -0.5295,1.0661 -0.8715,1.9383 -0.76,1.9383 0.1814,0 2.3544,-1.6304 6.5068,-4.8821 1.6952,-1.3275 1.6838,-1.2943 2.5605,-7.4546 0.7543,-5.3004 1.1201,-6.8047 2.2671,-9.3215 1.4202,-3.1165 4.4893,-5.6796 7.4703,-6.2389 l 0.9047,-0.1697 v 1.1242 c 0,2.1128 -1.0081,8.6839 -1.6299,10.6244 -0.3415,1.0656 -0.9588,2.5468 -1.3718,3.2916 -0.413,0.7447 -0.7006,1.4044 -0.639,1.466 0.062,0.062 0.5964,-0.2721 1.1886,-0.7415 0.5921,-0.4694 1.5508,-1.1561 2.1305,-1.5261 0.6235,-0.398 1.7979,-1.6693 2.8761,-3.1136 2.5708,-3.4435 6.6227,-7.3928 9.2535,-9.0192 2.5823,-1.5964 6.1764,-2.9254 9.3702,-3.465 1.2941,-0.2187 2.4044,-0.346 2.4674,-0.283 0.2192,0.2192 -0.8581,3.9093 -1.526,5.2274 -2.5862,5.1035 -6.6282,7.6654 -17.6917,11.2131 -2.1727,0.6968 -4.4813,1.5358 -5.1301,1.8646 -1.6013,0.8115 -6.6198,4.1652 -6.4647,4.3203 0.069,0.069 0.7806,-0.014 1.5824,-0.1834 2.1641,-0.457 5.987,-0.3601 10.2114,0.2589 2.0633,0.3023 3.805,0.6027 3.8705,0.6675 0.066,0.065 -0.2159,0.7575 -0.6252,1.5394 -1.3941,2.6629 -3.5036,4.1772 -6.8925,4.948 -2.0911,0.4756 -3.9934,0.3905 -9.6081,-0.4301 -1.9257,-0.2815 -4.2385,-0.5298 -5.1394,-0.5519 l -1.6381,-0.04 -3.8569,2.5417 c -2.1213,1.398 -3.8925,2.6488 -3.9361,2.7795 -0.044,0.131 0.5106,0.085 1.2353,-0.1033 1.727,-0.448 6.6488,-0.426 9.8338,0.044 1.3756,0.2029 2.9793,0.4397 3.5639,0.5262 0.5847,0.087 1.063,0.2583 1.063,0.3817 0,0.1235 -0.2852,0.7873 -0.6338,1.4752 -1.3834,2.73 -4.0332,4.4485 -7.6947,4.9905 -2.1163,0.3132 -4.7322,0.1007 -11.0542,-0.8982 -4.017,-0.6347 -3.8352,-0.6847 -7.9615,2.1906 -2.0113,1.4016 -3.6242,2.5811 -3.5841,2.6211 0.04,0.04 1.0527,-0.058 2.2504,-0.2186 1.6651,-0.2227 2.927,-0.2215 5.3612,0.01 3.6825,0.343 7.5604,1.0341 7.5604,1.3474 0,0.6443 -1.3602,2.7344 -2.432,3.7369 -2.9605,2.7692 -6.0754,3.2098 -14.6998,2.079 z m 53.8964,-29.9925 c -2.0434,-0.4395 -4.7598,-1.3748 -6.3717,-2.194 l -1.2398,-0.6301 1.7997,-0.9064 c 4.9682,-2.5019 9.5163,-3.6537 14.4872,-3.6689 2.9283,-0.01 5.8492,0.456 6.435,1.0241 0.6265,0.6078 -4.6022,5.0707 -7.03,6.0004 -1.8422,0.7054 -5.7094,0.8848 -8.0804,0.3749 z" />
  </g>
</svg>
