<?xml version="1.0" encoding="UTF-8" standalone="no"?>
<!-- Created with Inkscape (http://www.inkscape.org/) -->

<svg
   width="30.25668mm"
   height="27.889963mm"
   viewBox="0 0 114.35596 105.41089"
   version="1.1"
   id="svg1"
   xml:space="preserve"
   inkscape:version="1.4.3 (0d15f75, 2025-12-25)"
   sodipodi:docname="ALEGALOGO.svg"
   xmlns:inkscape="http://www.inkscape.org/namespaces/inkscape"
   xmlns:sodipodi="http://sodipodi.sourceforge.net/DTD/sodipodi-0.dtd"
   xmlns="http://www.w3.org/2000/svg"
   xmlns:svg="http://www.w3.org/2000/svg"><sodipodi:namedview
     id="namedview1"
     pagecolor="#ffffff"
     bordercolor="#000000"
     borderopacity="0.25"
     inkscape:showpageshadow="2"
     inkscape:pageopacity="0.0"
     inkscape:pagecheckerboard="0"
     inkscape:deskcolor="#d1d1d1"
     inkscape:document-units="mm"
     inkscape:zoom="0.35355339"
     inkscape:cx="605.2834"
     inkscape:cy="1197.8389"
     inkscape:window-width="2400"
     inkscape:window-height="1411"
     inkscape:window-x="2391"
     inkscape:window-y="-5"
     inkscape:window-maximized="1"
     inkscape:current-layer="layer1"><inkscape:page
       x="0"
       y="4.8546416e-20"
       width="114.35596"
       height="105.41089"
       id="page2"
       margin="0"
       bleed="0" /></sodipodi:namedview><defs
     id="defs1" /><g
     inkscape:label="Layer 1"
     inkscape:groupmode="layer"
     id="layer1"
     transform="translate(-1153.7841,-2212.0536)"><path
       style="fill:#d9d7ee;fill-opacity:1;stroke-width:0.349241"
       d="m 1156.4901,2235.6457 c 2.8522,-6.8807 8.028,-13.0117 14.5212,-17.2016 6.559,-4.2322 14.3638,-6.4041 22.6826,-6.3118 3.0033,0.033 11.8632,2.056 14.3013,3.2649 1.8312,0.9081 1.9905,0.9347 2.9311,0.4898 2.206,-1.0435 7.3444,-2.6451 10.1497,-3.1638 22.5749,-4.1732 44.3389,11.6429 46.812,34.0189 1.0835,9.8024 -1.3302,18.6289 -7.1643,26.1992 -1.845,2.394 -5.5409,5.8751 -8.0661,7.597 l -1.9585,1.3352 -0.2141,2.598 c -0.6712,8.1415 -5.6064,17.3266 -12.6429,23.5299 -6.5199,5.7477 -16.2852,9.3329 -25.7737,9.4622 -3.5864,0.049 -13.8032,-2.0361 -16.597,-3.3871 -7.8116,-3.7771 -13.462,-8.5748 -17.5369,-14.8898 -2.978,-4.6153 -5.4035,-11.2567 -5.9234,-16.2188 -0.1106,-1.0554 -0.3918,-1.9602 -0.625,-2.0105 -0.825,-0.1778 -5.9016,-4.4303 -7.8974,-6.6151 -5.0892,-5.5713 -8.7965,-13.745 -9.5409,-21.0328 -0.5793,-5.6738 0.404,-12.5059 2.5421,-17.6641 z m 1.2207,15.0101 c 0.1071,3.1212 1.6806,10.0731 2.5559,11.2916 0.549,0.7641 0.5488,0.7638 0.2918,-1.3534 -1.222,-10.2199 2.884,-21.0934 10.6709,-28.2583 7.7116,-7.0957 17.6471,-10.4802 28.6003,-9.7428 0.9981,0.067 1.6708,-0.2688 3.5354,-1.7661 1.2667,-1.0173 2.2528,-1.9272 2.1913,-2.0224 -0.062,-0.095 -1.2938,-0.5905 -2.7386,-1.1006 -2.895,-1.0223 -8.0715,-1.7256 -11.6921,-1.5886 -10.2562,0.3882 -19.9598,5.2425 -26.4301,13.2218 -1.6378,2.0196 -4.0988,6.4265 -5.0663,9.0719 -1.1204,3.0636 -2.0373,8.9035 -1.9226,12.246 z m 6.6438,7.5285 c 0.2368,6.358 3.3293,15.1002 6.1439,17.3679 2.6514,2.1364 9.1877,5.7442 9.3004,5.1335 0.027,-0.1244 -0.6489,-0.858 -1.4924,-1.6299 -1.8192,-1.6631 -5.3835,-6.9305 -6.3685,-9.4116 -2.4921,-6.2768 -2.8455,-12.049 -1.1004,-17.9702 2.7028,-9.1697 10.9425,-16.5402 20.6296,-18.4533 2.1454,-0.4237 2.179,-0.4487 3.2023,-2.3946 0.5689,-1.0816 1.4349,-2.4831 1.9245,-3.1143 l 0.8901,-1.1478 -0.7791,-0.168 c -1.3617,-0.2937 -6.4336,0.3904 -9.3966,1.2674 -3.8616,1.143 -6.2993,2.2925 -9.5693,4.5125 -3.3785,2.2942 -5.1218,3.93 -7.2927,6.8457 -4.3224,5.8052 -6.3517,12.1884 -6.0918,19.1627 z m 9.3909,-0.6548 c -0.5308,10.0546 5.4777,19.6852 15.0374,24.102 3.0991,1.432 3.606,1.515 7.018,1.149 2.7816,-0.2982 3.7938,-0.7423 2.3848,-1.0462 -1.1132,-0.24 -6.0281,-3.3365 -7.8278,-4.9318 -5.09,-4.5114 -9.1753,-11.4378 -10.5477,-17.8831 -0.7936,-3.7267 -1.0146,-8.2173 -0.5692,-11.5027 0.2183,-1.5987 0.282,-2.9312 0.1421,-2.9615 -0.4472,-0.096 -3.0745,4.071 -4.0649,6.4474 -1.2153,2.9165 -1.4267,3.8052 -1.5756,6.627 z m 9.179,-5.3448 c 0.043,2.8379 1.0699,7.7263 2.214,10.5427 1.1309,2.7844 3.997,7.2902 5.9334,9.3282 1.7623,1.8551 3.8225,3.4686 6.3973,5.0103 1.7932,1.0738 6.9352,2.8616 8.1162,2.8221 0.8966,-0.03 1.2703,-0.5717 0.5078,-0.7361 -0.6864,-0.148 -5.4856,-4.9291 -7.2454,-7.2182 -6.3096,-8.2064 -9.1895,-17.8859 -8.3,-27.896 0.1473,-1.6573 0.4557,-3.7766 0.6854,-4.7096 0.2299,-0.933 0.4317,-1.827 0.4498,-1.9864 0.038,-0.3412 -2.1274,0.3726 -4.648,1.5325 -1.36,0.6257 -1.9044,1.1084 -2.2872,2.0278 -0.7951,1.9096 -1.8653,8.5325 -1.8231,11.2826 z m -6.2864,34.276 c 3.4649,13.2024 13.9582,23.2916 27.1896,26.1427 7.5126,1.6189 15.4504,0.9291 22.2096,-1.9307 2.8554,-1.2079 7.7477,-4.3351 9.7741,-6.2473 0.9654,-0.9109 1.7713,-1.731 1.791,-1.8225 0.02,-0.091 -1.564,0.5707 -3.5193,1.4716 -5.4854,2.5272 -11.5222,3.8055 -17.7962,3.7682 -2.866,-0.017 -11.8539,-1.9591 -14.3365,-3.1014 -7.7648,-3.5609 -13.1099,-8.1357 -17.4013,-14.8937 -2.7263,-4.2934 -2.5823,-4.1718 -6.5171,-5.4899 -1.1396,-0.3817 -1.7768,-0.4588 -1.8279,-0.2214 -0.043,0.2005 0.1527,1.2451 0.4348,2.3213 z m 20.6555,-48.8872 c 2.8561,-2.1703 7.9998,-4.2873 12.0928,-4.9774 2.7359,-0.4612 6.6684,-0.529 10.418,-0.1796 5.5537,0.5176 12.4505,3.0742 17.7507,6.58 l 1.2449,0.8233 -0.5047,-0.9427 c -2.1219,-3.9645 -5.6961,-7.433 -10.1404,-9.8405 -2.2249,-1.2054 -3.5096,-1.6596 -6.5262,-2.3077 -7.6911,-1.648 -14.4908,-0.295 -20.9417,4.179 -2.1434,1.4867 -2.6529,2.0362 -3.406,3.6757 -0.4871,1.0603 -0.9662,2.0713 -1.0646,2.2465 -0.098,0.1752 -0.2729,0.7003 -0.3877,1.1669 -0.1912,0.7775 -0.069,0.7422 1.4647,-0.4234 z m -0.7948,7.5304 c 4.1539,-1.4736 9.9918,-2.4164 15.1772,-2.4509 3.6527,-0.024 11.1804,1.3273 14.6749,2.6348 5.0466,1.8885 9.9933,4.9015 13.3683,8.1428 l 1.11,1.0661 0.3137,-1.4553 c 0.3149,-1.4602 0.3235,-3.4799 0.028,-5.3355 -0.2504,-1.5717 -6.3855,-6.2874 -10.8832,-8.3655 -2.9189,-1.3486 -7.3834,-2.6007 -10.6178,-2.9777 -9.4957,-1.1066 -17.0695,1.178 -23.1031,6.9689 -2.0816,1.9979 -2.1001,2.4944 -0.066,1.7726 z m -1.1092,11.0089 c 1.8191,7.3051 6.6265,14.6823 12.9105,19.812 l 2.0104,1.641 1.6385,-1.1679 c 7.2947,-5.1982 12.2173,-12.5578 14.0337,-20.9819 0.9642,-4.472 0.9833,-5.5796 0.1048,-6.0491 -0.3776,-0.2018 -2.5108,-0.8535 -4.7405,-1.4482 -7.9697,-2.1257 -16.7506,-1.6235 -24.9341,1.4264 l -2.0921,0.7796 0.1831,1.5835 c 0.1011,0.8707 0.4991,2.8527 0.8855,4.4043 z m -6.6183,33.1163 c 3.0388,4.4186 7.8105,8.473 13.2102,11.2244 3.8875,1.9807 11.5642,3.6485 16.1593,3.5108 10.1676,-0.3054 19.8807,-5.0168 25.9918,-12.6077 2.0788,-2.5821 3.0289,-8.6743 2.3691,-15.1921 -0.1471,-1.4564 -0.3913,-2.6746 -0.5421,-2.7071 -0.1509,-0.033 -0.5251,1.1043 -0.8317,2.5262 -0.6121,2.8389 -2.6266,7.2857 -4.4127,9.7405 -2.0262,2.785 -4.5432,5.0453 -8.212,7.3747 -3.0623,1.9439 -4.2078,2.4403 -7.53,3.2607 -2.155,0.5323 -4.9726,1.0107 -6.2612,1.0634 -3.13,0.1279 -9.8924,-1.0371 -12.4766,-2.1499 -3.151,-1.3568 -7.0094,-3.9251 -9.2764,-6.1747 l -2.0733,-2.0574 -2.7206,-0.023 c -1.4963,-0.012 -3.1652,-0.1187 -3.7084,-0.2358 -0.5431,-0.1172 -1.0159,-0.082 -1.0505,0.079 -0.035,0.1605 0.5796,1.2262 1.3649,2.3682 z m 21.8652,-66.6132 c 4.4141,-0.7539 7.5439,-0.677 11.9943,0.2949 11.9274,2.6044 20.9768,12.32 22.3641,24.0099 0.3928,3.31 0.1003,8.0576 -0.6079,9.8659 -0.4175,1.0661 -0.3198,1.4117 1.176,4.1448 0.8975,1.6398 1.9221,3.6037 2.277,4.3641 l 0.6455,1.3822 1.0729,-1.9122 c 1.6704,-2.9774 3.418,-11.4864 3.1557,-15.3663 -0.6986,-10.3379 -6.8612,-20.3653 -15.7867,-25.6877 -3.6783,-2.1934 -5.3949,-2.8468 -10.0701,-3.8331 -4.9298,-1.04 -9.0204,-1.1434 -12.9695,-0.3281 -1.7298,0.357 -6.4983,2.7979 -6.6263,3.3918 -0.031,0.143 1.488,0 3.375,-0.3262 z m -8.6656,65.6728 c 3.1112,2.4029 3.9383,2.5853 7.5175,1.6577 6.8083,-1.764 14.3163,-6.829 18.3548,-12.3822 2.9793,-4.0971 3.6934,-5.6856 4.7486,-10.5624 0.9112,-4.2264 0.9639,-4.8452 0.5938,-7.4655 -0.3784,-2.6806 -1.8901,-7.4619 -2.3938,-7.5705 -0.1243,-0.027 -0.3578,1.008 -0.5173,2.2999 -0.6879,5.559 -4.0686,12.9889 -8.2994,18.2399 -4.8436,6.0112 -13.6605,11.7068 -20.6715,13.3539 -0.6815,0.1601 -1.267,0.4193 -1.3008,0.5761 -0.034,0.1568 0.8521,0.9906 1.9687,1.853 z m 31.2002,-70.6509 c 13.8148,5.3378 23.0961,18.2247 23.461,32.5759 0.1791,7.0347 -2.3792,15.6694 -6.1354,20.7081 -0.5272,0.7076 -0.5526,1.1801 -0.1842,3.4412 0.5062,3.1073 0.4298,3.1161 4.1534,-0.4866 4.9549,-4.7938 7.5291,-9.4022 9.0021,-16.1153 1.4133,-6.4404 0.9158,-12.4652 -1.5648,-18.9512 -3.1503,-8.237 -9.5779,-15.1472 -17.9157,-19.2615 -2.6274,-1.2966 -4.1879,-1.8281 -7.5713,-2.5793 -3.7918,-0.8419 -7.6539,-1.2799 -6.8003,-0.7713 0.174,0.1038 1.7739,0.7517 3.5552,1.44 z m -17.2096,75.8185 c 5.6304,0.3295 9.9713,-0.8251 14.8606,-3.9529 3.0298,-1.9382 3.913,-2.7253 5.8255,-5.1923 3.582,-4.6207 5.4497,-9.7193 5.4585,-14.9002 0,-2.9104 -0.4612,-6.1072 -1.1364,-7.7947 -0.5226,-1.3061 -3.7078,-5.5109 -4.0213,-5.3086 -0.093,0.06 0,1.403 0.1998,2.9851 0.3142,2.4563 0.2431,3.559 -0.486,7.5509 -0.9645,5.28 -2.0408,7.8684 -5.1093,12.2882 -3.4872,5.0233 -10.4489,10.6179 -16.0671,12.9122 -1.2334,0.5038 -2.1914,0.9946 -2.1292,1.0912 0.062,0.096 1.2346,0.2406 2.605,0.3211 z"
       id="path87"
       inkscape:export-filename="..\..\Downloads\path87.svg"
       inkscape:export-xdpi="96"
       inkscape:export-ydpi="96" /></g></svg>
